<?xml version="1.0" encoding="iso-8859-1"?>
<!-- Generator: Adobe Illustrator 19.0.0, SVG Export Plug-In . SVG Version: 6.00 Build 0)  -->
<svg version="1.1" id="Layer_1" xmlns="http://www.w3.org/2000/svg" xmlns:xlink="http://www.w3.org/1999/xlink" x="0px" y="0px"
	 viewBox="0 0 473.931 473.931" style="enable-background:new 0 0 473.931 473.931;" xml:space="preserve">
<circle style="fill:#4ABC96;" cx="236.966" cy="236.966" r="236.966"/>
<path style="fill:#357180;" d="M402.351,348.197c0,2.417-1.953,4.367-4.367,4.367H85.742c-2.413,0-4.363-1.949-4.363-4.367V126.816
	c0-2.406,1.949-4.363,4.363-4.363h312.239c2.413,0,4.367,1.957,4.367,4.363v221.381H402.351z"/>
<rect x="233.224" y="122.453" style="fill:#27636D;" width="17.665" height="230.118"/>
<polygon style="fill:#D7D7BF;" points="241.864,133.663 93.181,133.663 93.181,341.353 241.864,341.353 390.55,341.353 
	390.55,133.663 "/>
<rect x="233.561" y="133.663" style="fill:#C5C3AE;" width="17.021" height="207.555"/>
<g>
	<polygon style="fill:#E7E7D6;" points="241.864,341.353 99.078,335.183 99.078,126.891 241.864,133.663 	"/>
	<polygon style="fill:#E7E7D6;" points="384.653,335.183 241.864,341.353 241.864,133.663 384.653,126.891 	"/>
</g>
<rect x="241.119" y="138.52" style="fill:#DCDDD8;" width="1.916" height="202.654"/>
<g>
	<path style="fill:#B9B9BA;" d="M230.627,163.231c0,2.675-2.088,4.774-4.655,4.692l-110.243-3.521
		c-2.567-0.082-4.655-2.316-4.655-4.992l0,0c0-2.679,2.092-4.778,4.655-4.696l110.243,3.521
		C228.539,158.321,230.627,160.555,230.627,163.231L230.627,163.231z"/>
	<path style="fill:#B9B9BA;" d="M230.627,183.066c0,2.675-2.088,4.778-4.655,4.696l-110.243-3.521
		c-2.567-0.082-4.655-2.32-4.655-4.995l0,0c0-2.675,2.092-4.774,4.655-4.692l110.243,3.521
		C228.539,178.16,230.627,180.39,230.627,183.066L230.627,183.066z"/>
	<path style="fill:#B9B9BA;" d="M230.627,202.343c0,2.679-2.088,4.778-4.655,4.696l-110.243-3.521
		c-2.567-0.082-4.655-2.316-4.655-4.995l0,0c0-2.675,2.092-4.774,4.655-4.692l110.243,3.521
		C228.539,197.438,230.627,199.672,230.627,202.343L230.627,202.343z"/>
	<path style="fill:#B9B9BA;" d="M230.627,222.178c0,2.679-2.088,4.782-4.655,4.7l-110.243-3.521
		c-2.567-0.082-4.655-2.32-4.655-4.999l0,0c0-2.675,2.092-4.771,4.655-4.688l110.243,3.521
		C228.539,217.277,230.627,219.503,230.627,222.178L230.627,222.178z"/>
	<path style="fill:#B9B9BA;" d="M230.627,242.298c0,2.672-2.088,4.774-4.655,4.692l-110.243-3.521
		c-2.567-0.082-4.655-2.32-4.655-4.992l0,0c0-2.675,2.092-4.771,4.655-4.688l110.243,3.521
		C228.539,237.396,230.627,239.622,230.627,242.298L230.627,242.298z"/>
	<path style="fill:#B9B9BA;" d="M230.627,262.133c0,2.675-2.088,4.774-4.655,4.692l-110.243-3.521
		c-2.567-0.082-4.655-2.316-4.655-4.992l0,0c0-2.672,2.092-4.774,4.655-4.692l110.243,3.521
		C228.539,257.224,230.627,259.461,230.627,262.133L230.627,262.133z"/>
	<path style="fill:#B9B9BA;" d="M230.627,281.41c0,2.675-2.088,4.778-4.655,4.696l-110.243-3.521
		c-2.567-0.082-4.655-2.32-4.655-4.995l0,0c0-2.672,2.092-4.771,4.655-4.688l110.243,3.521
		C228.539,276.509,230.627,278.739,230.627,281.41L230.627,281.41z"/>
	<path style="fill:#B9B9BA;" d="M230.627,301.245c0,2.679-2.088,4.778-4.655,4.696l-110.243-3.521
		c-2.567-0.082-4.655-2.316-4.655-4.995l0,0c0-2.668,2.092-4.771,4.655-4.688l110.243,3.521
		C228.539,296.344,230.627,298.578,230.627,301.245L230.627,301.245z"/>
	<path style="fill:#B9B9BA;" d="M253.89,163.231c0,2.675,2.084,4.774,4.651,4.692l110.24-3.521c2.574-0.082,4.655-2.316,4.655-4.992
		l0,0c0-2.679-2.084-4.778-4.655-4.696l-110.24,3.521C255.974,158.321,253.89,160.555,253.89,163.231L253.89,163.231z"/>
	<path style="fill:#B9B9BA;" d="M253.89,183.066c0,2.675,2.084,4.778,4.651,4.696l110.24-3.521c2.574-0.082,4.655-2.32,4.655-4.995
		l0,0c0-2.675-2.084-4.774-4.655-4.692l-110.24,3.521C255.974,178.16,253.89,180.39,253.89,183.066L253.89,183.066z"/>
	<path style="fill:#B9B9BA;" d="M253.89,202.343c0,2.679,2.084,4.778,4.651,4.696l110.24-3.521c2.574-0.082,4.655-2.316,4.655-4.995
		l0,0c0-2.675-2.084-4.774-4.655-4.692l-110.24,3.521C255.974,197.438,253.89,199.672,253.89,202.343L253.89,202.343z"/>
	<path style="fill:#B9B9BA;" d="M253.89,222.178c0,2.679,2.084,4.782,4.651,4.7l110.24-3.521c2.574-0.082,4.655-2.32,4.655-4.999
		l0,0c0-2.675-2.084-4.771-4.655-4.688l-110.24,3.521C255.974,217.277,253.89,219.503,253.89,222.178L253.89,222.178z"/>
	<path style="fill:#B9B9BA;" d="M253.89,242.298c0,2.672,2.084,4.774,4.651,4.692l110.24-3.521c2.574-0.082,4.655-2.32,4.655-4.992
		l0,0c0-2.675-2.084-4.771-4.655-4.688l-110.24,3.521C255.974,237.396,253.89,239.622,253.89,242.298L253.89,242.298z"/>
	<path style="fill:#B9B9BA;" d="M253.89,262.133c0,2.675,2.084,4.774,4.651,4.692l110.24-3.521c2.574-0.082,4.655-2.316,4.655-4.992
		l0,0c0-2.672-2.084-4.774-4.655-4.692l-110.24,3.521C255.974,257.224,253.89,259.461,253.89,262.133L253.89,262.133z"/>
	<path style="fill:#B9B9BA;" d="M253.89,281.41c0,2.675,2.084,4.778,4.651,4.696l110.24-3.521c2.574-0.082,4.655-2.32,4.655-4.995
		l0,0c0-2.672-2.084-4.771-4.655-4.688l-110.24,3.521C255.974,276.509,253.89,278.739,253.89,281.41L253.89,281.41z"/>
	<path style="fill:#B9B9BA;" d="M253.89,301.245c0,2.679,2.084,4.778,4.651,4.696l110.24-3.521c2.574-0.082,4.655-2.316,4.655-4.995
		l0,0c0-2.668-2.084-4.771-4.655-4.688l-110.24,3.521C255.974,296.344,253.89,298.578,253.89,301.245L253.89,301.245z"/>
</g>
<polygon style="fill:#BB5538;" points="338.783,275.311 321.537,240.318 301.5,275.311 301.5,122.367 338.783,122.367 "/>
<g>
</g>
<g>
</g>
<g>
</g>
<g>
</g>
<g>
</g>
<g>
</g>
<g>
</g>
<g>
</g>
<g>
</g>
<g>
</g>
<g>
</g>
<g>
</g>
<g>
</g>
<g>
</g>
<g>
</g>
</svg>
